#!OML:ASF H:\Martial Arts Walks\Project 1\Capture day 1\Session 1\male.ASF
:FULLY-SPECIFIED
:DEGREES
1949
root -0.268465 14.3429 -31.5506 14.6387 -25.4385 -16.718
lowerback 9.91181 0.775288 5.18925
upperback -1.84152 1.95591 3.91888
thorax -7.50255 0.811871 0.910538
lowerneck -4.90276 6.22175 0.535839
upperneck 5.38652 8.13071 2.33674
head 2.46652 4.12789 0.94249
rclavicle -2.84262e-014 5.56597e-015
rhumerus -79.3004 21.0266 -97.6045
rradius 110.594
rwrist -69.597
rhand -2.83938 -21.1503
rfingers 7.12502
rthumb 22.8681 -49.8144
lclavicle -2.84262e-014 5.56597e-015
lhumerus 59.358 18.9314 90.4362
lradius 14.2295
lwrist -64.3376
lhand -32.9319 36.8357
lfingers 7.12502
lthumb -6.14849 426.726
rfemur 8.1707 -8.09488 19.1036
rtibia 33.7748
rfoot -22.1116 -31.8785
rtoes -29.0776
lfemur -68.5345 25.9213 -5.68303
ltibia 71.1233
lfoot -5.07317 -4.11832
ltoes 1.02635
1950
root -0.272882 14.3387 -31.5461 14.6492 -25.433 -16.6517
lowerback 9.84525 0.75741 5.15209
upperback -1.85588 1.92209 3.90661
thorax -7.4809 0.797111 0.924549
lowerneck -4.88742 6.22494 0.547486
upperneck 5.45024 8.13303 2.33988
head 2.48535 4.12954 0.942919
rclavicle -3.26007e-014 2.3059e-014
rhumerus -79.2843 21.0282 -97.5821
rradius 110.528
rwrist -69.5841
rhand -2.80349 -21.1284
rfingers 7.12502
rthumb 22.9025 -49.7882
lclavicle -3.26007e-014 2.3059e-014
lhumerus 59.3537 18.9909 90.4208
lradius 14.2212
lwrist -64.5049
lhand -32.9327 36.8886
lfingers 7.12502
lthumb -6.14923 426.779
rfemur 8.12928 -8.08576 19.0667
rtibia 33.8372
rfoot -22.1937 -31.9384
rtoes -29.0061
lfemur -68.6063 25.9424 -5.7735
ltibia 71.1752
lfoot -5.12542 -4.13461
ltoes 1.07905
1951
root -0.27622 14.3351 -31.5411 14.6513 -25.4457 -16.5538
lowerback 9.77471 0.742016 5.08833
upperback -1.87121 1.8877 3.88811
thorax -7.45844 0.783143 0.946909
lowerneck -4.85663 6.22628 0.548941
upperneck 5.49919 8.13393 2.34511
head 2.49588 4.13023 0.944532
rclavicle 6.53008e-014 -7.95139e-016
rhumerus -79.2771 21.0422 -97.5575
rradius 110.474
rwrist -69.6493
rhand -2.79249 -21.1292
rfingers 7.12502
rthumb 22.9131 -49.7878
lclavicle 6.53008e-014 -7.95139e-016
lhumerus 59.395 19.103 90.5152
lradius 14.1863
lwrist -64.6869
lhand -32.9678 36.9485
lfingers 7.12502
lthumb -6.18313 426.838
rfemur 8.07074 -8.08889 18.9775
rtibia 33.9225
rfoot -22.2959 -31.958
rtoes -28.9454
lfemur -68.6702 25.9614 -5.898
ltibia 71.222
lfoot -5.1751 -4.13759
ltoes 1.12423
1952
root -0.278679 14.3319 -31.5352 14.6498 -25.47 -16.4379
lowerback 9.6925 0.727254 5.00825
upperback -1.88527 1.85129 3.87057
thorax -7.42836 0.769077 0.979805
lowerneck -4.8143 6.22572 0.540652
upperneck 5.54069 8.13348 2.34667
head 2.50153 4.12986 0.945831
rclavicle -1.98785e-014 2.38542e-015
rhumerus -79.2815 21.0733 -97.5296
rradius 110.432
rwrist -69.7565
rhand -2.77046 -21.1354
rfingers 7.12502
rthumb 22.9342 -49.7913
lclavicle -1.98785e-014 2.38542e-015
lhumerus 59.4922 19.2835 90.7486
lradius 14.1192
lwrist -64.9312
lhand -33.0164 36.9881
lfingers 7.12502
lthumb -6.23 426.877
rfemur 8.00858 -8.1063 18.8513
rtibia 34.0098
rfoot -22.3892 -31.9532
rtoes -28.9196
lfemur -68.7319 25.9824 -6.04617
ltibia 71.2691
lfoot -5.2235 -4.13154
ltoes 1.14833
1953
root -0.280386 14.3286 -31.5282 14.6455 -25.4912 -16.3173
lowerback 9.60189 0.709617 4.926
upperback -1.8982 1.81059 3.85951
thorax -7.39252 0.753229 1.02148
lowerneck -4.76858 6.22237 0.52467
upperneck 5.588 8.13012 2.34336
head 2.50842 4.12772 0.946793
rclavicle -5.86415e-015 5.00937e-014
rhumerus -79.2976 21.1178 -97.498
rradius 110.396
rwrist -69.8572
rhand -2.75687 -21.1649
rfingers 7.12502
rthumb 22.9473 -49.8192
lclavicle -5.86415e-015 5.00937e-014
lhumerus 59.6455 19.5369 91.1355
lradius 14.0221
lwrist -65.2969
lhand -33.052 36.9944
lfingers 7.12502
lthumb -6.26445 426.882
rfemur 7.959 -8.14601 18.7057
rtibia 34.0823
rfoot -22.4685 -31.9328
rtoes -28.9311
lfemur -68.7964 26.0008 -6.20485
ltibia 71.3221
lfoot -5.27169 -4.1222
ltoes 1.16724
1954
root -0.281729 14.3251 -31.5204 14.6452 -25.5045 -16.2082
lowerback 9.50228 0.688437 4.85404
upperback -1.9098 1.76641 3.85901
thorax -7.35017 0.73553 1.06914
lowerneck -4.72432 6.21715 0.506832
upperneck 5.64676 8.12473 2.33119
head 2.51973 4.1243 0.94562
rclavicle -3.57812e-015 -6.2816e-014
rhumerus -79.3253 21.1743 -97.464
rradius 110.362
rwrist -69.9147
rhand -2.72854 -21.1999
rfingers 7.12502
rthumb 22.9745 -49.8509
lclavicle -3.57812e-015 -6.2816e-014
lhumerus 59.8338 19.8415 91.6259
lradius 13.9057
lwrist -65.7759
lhand -33.0683 36.9834
lfingers 7.12502
lthumb -6.28018 426.87
rfemur 7.92717 -8.19821 18.5645
rtibia 34.1297
rfoot -22.5285 -31.9107
rtoes -28.9697
lfemur -68.8688 26.0225 -6.35904
ltibia 71.3846
lfoot -5.32204 -4.11594
ltoes 1.15833
1955
root -0.282931 14.321 -31.5122 14.6496 -25.5027 -16.1218
lowerback 9.40599 0.662895 4.79967
upperback -1.9212 1.71976 3.87249
thorax -7.30951 0.716062 1.12204
lowerneck -4.69559 6.21128 0.48971
upperneck 5.72913 8.11833 2.31154
head 2.5422 4.12027 0.943316
rclavicle -6.80837e-014 8.74653e-015
rhumerus -79.3578 21.2363 -97.4269
rradius 110.321
rwrist -69.9088
rhand -2.67234 -21.2283
rfingers 7.12502
rthumb 23.0284 -49.8725
lclavicle -6.80837e-014 8.74653e-015
lhumerus 60.0341 20.1705 92.1675
lradius 13.7828
lwrist -66.3371
lhand -33.062 36.9538
lfingers 7.12502
lthumb -6.27407 426.841
rfemur 7.91661 -8.25746 18.4472
rtibia 34.1503
rfoot -22.5672 -31.8973
rtoes -29.0246
lfemur -68.9503 26.0471 -6.49592
ltibia 71.4577
lfoot -5.37438 -4.11887
ltoes 1.13925
